<svg width="151" height="49" version="1.1" xmlns="http://www.w3.org/2000/svg" xmlns:xlink="http://www.w3.org/1999/xlink" style=""><rect id="backgroundrect" width="100%" height="100%" x="0" y="0" fill="none" stroke="none"/>
    <title>logo-dark</title>
    <desc>Created with Pencil Domains.</desc>
    <defs/>
    
<g class="currentLayer" style=""><title>Layer 1</title><g id="logo-dark" stroke="none" stroke-width="1" fill="#ffffff" fill-rule="evenodd" class="selected" fill-opacity="1">
        <g id="Group" fill="#ffffff" fill-opacity="1">
            <path d="M39.8479955,16.330932400000002 L36.9273385,11.142414 L42.5857461,11.1440899 C42.7369154,11.1440899 42.9131403,11.2446425 42.9958241,11.380388700000001 C43.0860245,11.5287039 43.5453786,12.2862007 44.0974388,13.1962025 C44.7580735,14.2855233 45.5481626,15.5876805 46,16.330932400000002 L39.8479955,16.330932400000002 zM29.3822383,47.7544839 C29.2452673,48 29.0673719,48 29.0097439,48 L26.6979399,48 C25.4743875,47.9991621 24.0629176,47.9983241 23.2227171,47.9983241 L32.2135301,31.8571047 C32.363029,31.5889642 32.3596882,31.2621679 32.204343,30.9973792 C32.048997799999995,30.7325905 31.766703800000002,30.5700303 31.4610245,30.5700303 L31.4601893,30.5700303 L16.136971000000003,30.5901408 L13.0902004,25.3144767 L35.4089644,25.3144767 C35.4106347,25.3144767 35.4123051,25.3136388 35.4148107,25.3136388 C35.4173163,25.3136388 35.4189866,25.3144767 35.420657,25.3144767 C35.4331849,25.3144767 35.4448775,25.310287 35.4574053,25.3094491 C35.5075167,25.3060973 35.5576281,25.3010697 35.6052339,25.2893386 C35.6419822,25.2809592 35.6778953,25.269228 35.7138085,25.255821 C35.7330178,25.2482796 35.751392,25.2407381 35.7697661,25.2323587 C35.936804,25.1577821 36.0846325,25.035443 36.1790089,24.8619897 L39.8580178,18.0604386 L45.9315145,18.0604386 L29.3822383,47.7544839 zM21.7252227,47.1411125 C21.5297884,46.8193439 21.2758909,46.4012123 20.9994432,45.9462114 C20.0698775,44.4119451 18.878897600000002,42.447816 18.7444321,42.2324657 C18.6993318,42.159565 18.6784521,41.9819219 18.7728285,41.8126582 C18.9883073,41.4255304 23.0573497,34.0960777 24.0487194,32.3095917 L29.9902561,32.302050300000005 L21.7252227,47.1411125 zM11.592706,37.0397575 L8.63947661,31.7925833 L11.6160913,26.2127474 L14.6018931,31.3819932 C13.6739978,33.1290961 12.2257795,35.8540738 11.592706,37.0397575 zM7.6288975500000005,37.8567481 C6.12555679,37.8567481 4.63056793,37.8559101 4.41091314,37.8559101 L4.41007795,37.8559101 C4.26308463,37.8559101 4.0851893100000005,37.7528436 4.0041759500000005,37.6204493 L3.04287305,36.0359066 C2.35801782,34.9063648 1.4844098000000001,33.4659476 1,32.669067600000005 L7.15200445,32.669067600000005 L10.07182628,37.857586 C9.43457684,37.857586 8.53257238,37.8567481 7.6288975500000005,37.8567481 zM17.6177617,1.246354074 C17.7547327,1 17.9317929,1 17.9894209,1 L23.8015033,1.000837939027 L14.7864699,17.1420574 C14.7789532,17.1554644 14.7747773,17.1697094 14.768095800000001,17.1839544 C14.7547327,17.2107684 14.7430401,17.2384204 14.7321826,17.2669103 C14.7229955,17.2945623 14.7146437,17.3213764 14.7071269,17.3490283 C14.7004454,17.3750045 14.6945991,17.4009806 14.6904232,17.4269567 C14.685412,17.4596363 14.6820713,17.491478 14.6812361,17.5233197 C14.6804009,17.5375646 14.6770601,17.5509717 14.6770601,17.5660546 C14.6770601,17.5769478 14.6795657,17.587003 14.6804009,17.5978962 C14.6812361,17.6297379 14.6845768,17.6607417 14.689588,17.691745400000002 C14.6929287,17.7177215 14.6971047,17.7436976 14.7037862,17.7696737 C14.7104677,17.797325700000002 14.7196548,17.8233018 14.7288419,17.8501159 C14.738029000000001,17.876092 14.747216,17.902906 14.7589087,17.9280442 C14.7706013,17.9531824 14.7839644,17.9766447 14.7981626,18.0009449 C14.8123608,18.0244072 14.8257238,18.0478695 14.8424276,18.0704938 C14.8582962,18.0931182 14.8766704,18.1140667 14.8958797,18.1358531 C14.9142539,18.1559636 14.9326281,18.1769121 14.9526726,18.1961847 C14.9727171,18.2146194 14.9935969,18.2305402 15.0153118,18.247299 C15.0395323,18.2665716 15.0637528,18.2841683 15.0896437,18.3000891 C15.0996659,18.3059547 15.1071826,18.3134962 15.1172049,18.3193617 C15.1272272,18.3252273 15.1380846,18.3269032 15.1489421,18.3319308 C15.1932071,18.3545552 15.2399777,18.3738278 15.2892539,18.3889107 C15.3067929,18.3939383 15.3234967,18.4006418 15.3418708,18.4048315 C15.40451,18.4199144 15.4688196,18.4291318 15.5364699,18.4291318 C15.5373051,18.4291318 15.5373051,18.4299697 15.5381403,18.4299697 L15.5389755,18.4299697 L15.5398107,18.4299697 L15.9214922,18.4291318 C15.9231626,18.4291318 15.924833,18.4299697 15.9265033,18.4299697 L15.9273385,18.4299697 L30.8655345,18.4098592 C31.2605791,19.0969692 31.9988864,20.3899091 32.627784,21.490961 C33.1105234,22.3372794 33.5097439,23.0352826 33.8237751,23.5841326 L11.5943764,23.5841326 C11.5843541,23.5841326 11.575167,23.5874844 11.56598,23.5883223 C11.2636414,23.59335 10.97216036,23.7533963 10.81848552,24.0408094 L7.13864143,30.938723500000002 L1.0693207127,30.938723500000002 C3.7185412,26.1842574 17.4407016,1.563095026 17.6177617,1.246354074 zM25.2873051,1.8789980390000003 L25.8268374,2.76721341 C26.7747773,4.330807630000001 28.1135857,6.53793903 28.2555679,6.76753432 C28.3006682,6.84043502 28.3215479,7.01724015 28.2263363,7.18734177 L22.9504454,16.6904083 L17.0114143,16.697949700000002 L25.2873051,1.8789980390000003 zM35.4047884,11.9543769 L38.3596882,17.2040649 L35.3471604,22.7721697 C34.988029,22.1453913 34.5420379,21.3644322 34.123608,20.6312355 C33.2967706,19.1824389 32.6937639,18.1274737 32.3538419,17.5375646 C32.9961024,16.361936200000002 34.6940423,13.2515065 35.4047884,11.9543769 z" id="Fill-1" fill="#ffffff" fill-opacity="1"/>
            <path d="M52.12,38 L52.12,25.06 L54.26,25.06 L54.26,30.14 C54.56,29.74 55.38,28.96 56.76,28.96 C58.44,28.96 59.88,29.68 59.88,32.54 L59.88,38 L57.74,38 L57.74,32.96 C57.74,31.52 57.44,30.74 56.14,30.74 C55.18,30.74 54.64,31.12 54.26,31.54 L54.26,38 L52.12,38 zM65.8,38.2 C64.08,38.2 62.68,37.44 62.68,35.68 C62.68,33.64 64.5,33.1 66.32,33.1 C67.24,33.1 68.22,33.26 68.74,33.42 L68.74,32.7 C68.74,31.56 68.54,30.66 66.9,30.66 C65.66,30.66 64.94,31.16 64.94,32.2 L62.92,32.2 C62.92,29.78 64.9,28.96 67.04,28.96 C69.34,28.96 70.88,29.94 70.88,32.42 L70.88,36.08 C70.88,36.42 71,36.54 71.36,36.54 C71.6,36.54 71.96,36.48 72.2,36.42 L72.2,37.84 C71.84,38 71.16,38.2 70.5,38.2 C69.38,38.2 69.06,37.62 69.06,36.96 L69.06,36.8 C68.6,37.38 67.62,38.2 65.8,38.2 zM66.3,36.6 C67.42,36.6 68.3,36.22 68.74,35.86 L68.74,34.74 C68.36,34.64 67.54,34.56 66.78,34.56 C65.6,34.56 64.82,34.78 64.82,35.62 C64.82,36.3 65.32,36.6 66.3,36.6 zM74.52,38 L74.52,29.16 L76.38,29.16 L76.38,30.36 C76.8,29.78 77.62,28.96 79.12,28.96 C80.8,28.96 82.28,29.68 82.28,32.54 L82.28,38 L80.14,38 L80.14,32.96 C80.14,31.52 79.84,30.74 78.54,30.74 C77.58,30.74 77.04,31.12 76.66,31.54 L76.66,38 L74.52,38 zM88.72,38.2 C86.76,38.2 85.02,36.84 85.02,33.58 C85.02,30.32 86.8,28.96 88.72,28.96 C90.12,28.96 91,29.68 91.36,30.08 L91.36,25.06 L93.5,25.06 L93.5,38 L91.64,38 L91.64,36.84 C91.18,37.46 90.22,38.2 88.72,38.2 zM89.38,36.42 C90.28,36.42 90.94,36.04 91.36,35.64 L91.36,31.52 C90.94,31.12 90.28,30.74 89.38,30.74 C87.86,30.74 87.22,31.88 87.22,33.58 C87.22,35.28 87.86,36.42 89.38,36.42 zM100.74,38.2 C98.38,38.2 96.44,37.4 96.38,35.22 L98.48,35.22 C98.56,36.16 99.52,36.56 100.86,36.56 C102.08,36.56 103.04,36.38 103.04,35.56 C103.04,34.68 101.7,34.54 99.92,34.22 C98.2,33.92 96.54,33.42 96.54,31.56 C96.54,29.74 98.42,28.96 100.6,28.96 C102.78,28.96 104.64,29.54 104.8,31.76 L102.7,31.76 C102.56,30.8 101.54,30.6 100.62,30.6 C99.4,30.6 98.72,30.84 98.72,31.44 C98.72,32.239999999999995 99.78,32.379999999999995 101.88,32.72 C103.52,32.980000000000004 105.24,33.52 105.24,35.34 C105.24,37.48 103.22,38.2 100.74,38.2 zM108.12,38 L108.12,25.06 L110.26,25.06 L110.26,30.14 C110.56,29.74 111.38,28.96 112.76,28.96 C114.44,28.96 115.88,29.68 115.88,32.54 L115.88,38 L113.74,38 L113.74,32.96 C113.74,31.52 113.44,30.74 112.14,30.74 C111.18,30.74 110.64,31.12 110.26,31.54 L110.26,38 L108.12,38 zM121.8,38.2 C120.08,38.2 118.68,37.44 118.68,35.68 C118.68,33.64 120.5,33.1 122.32,33.1 C123.24,33.1 124.22,33.26 124.74,33.42 L124.74,32.7 C124.74,31.56 124.54,30.66 122.9,30.66 C121.66,30.66 120.94,31.16 120.94,32.2 L118.92,32.2 C118.92,29.78 120.9,28.96 123.04,28.96 C125.34,28.96 126.88,29.94 126.88,32.42 L126.88,36.08 C126.88,36.42 127,36.54 127.36,36.54 C127.6,36.54 127.96,36.48 128.2,36.42 L128.2,37.84 C127.84,38 127.16,38.2 126.5,38.2 C125.38,38.2 125.06,37.62 125.06,36.96 L125.06,36.8 C124.6,37.38 123.62,38.2 121.8,38.2 zM122.3,36.6 C123.42,36.6 124.3,36.22 124.74,35.86 L124.74,34.74 C124.36,34.64 123.54,34.56 122.78,34.56 C121.6,34.56 120.82,34.78 120.82,35.62 C120.82,36.3 121.32,36.6 122.3,36.6 zM130.52,38 L130.52,25.06 L132.66,25.06 L132.66,32.5 L136.5,29.16 L139.34,29.16 L135.52,32.4 L139.56,38 L136.98,38 L134,33.58 L132.66,34.66 L132.66,38 L130.52,38 zM145.72,38.2 C143.16,38.2 141.06,36.94 141.06,33.62 C141.06,30.08 143.42,28.96 145.6,28.96 C147.86,28.96 150.14,30.08 150.14,33.58 L150.14,34.06 L143.22,34.06 C143.28,35.6 144.04,36.54 145.76,36.54 C146.94,36.54 147.76,36.06 147.92,35.2 L150.12,35.2 C149.7,37.48 147.64,38.2 145.72,38.2 zM143.26,32.56 L147.94,32.56 C147.76,31.2 146.76,30.62 145.6,30.62 C144.44,30.62 143.44,31.2 143.26,32.56 z" id="handshake-smol" fill="#ffffff" fill-opacity="1"/>
        </g>
    </g></g></svg>